<svg xmlns="http://www.w3.org/2000/svg" id="Layer_1" data-name="Layer 1" class="illustration styles_illustrationTablet__1DWOa" viewBox="40.83 27.08 319.66 218.16"><rect x="104.74" y="61.69" width="196.03" height="127.37" fill="#f2f2f2"/><polygon points="187.94 174.51 180.5 221.81 230.16 221.81 218.74 174.51 187.94 174.51" fill="#c9c9c9"/><ellipse cx="200.66" cy="232.69" rx="159.83" ry="12.55" fill="#e6e6e6" opacity="0.24"/><rect x="169.17" y="213.52" width="69.84" height="15.2" fill="#e6e6e6"/><rect x="104.74" y="164.47" width="196.03" height="24.59" fill="#e6e6e6"/><circle cx="204.88" cy="176.77" r="6.7" fill="#a5a5a5"/><path d="M197.57,52.88a32.48,32.48,0,0,0,.76,8.71,2.65,2.65,0,0,0,3.3,1.78A5.85,5.85,0,0,0,206,58.8l1.4-4.65a4.73,4.73,0,0,0-2.28-5C202.09,47.17,197.56,49.67,197.57,52.88Z" fill="#f4a28c"/><polygon points="207.16 54.99 210.53 71.91 201.07 73.09 202.42 60.31 207.16 54.99" fill="#f4a28c"/><path d="M203.33,57.17s0-2,1.49-1.93,1.6,3-.46,3.38Z" fill="#f4a28c"/><path d="M197.58,56.2l-1.39,2.08a.84.84,0,0,0,.58,1.3l2,.31Z" fill="#f4a28c"/><path d="M216.9,61.69h13.26s19.27,15,25.39,36.71c5,17.64,4.06,33.43-3,43.79a24.33,24.33,0,0,0-3.59,18.34l.75,3.94H214.61Z" opacity="0.08"/><path d="M201.07,73.51s-13.47,0-15.7,10.65-1.28,37.28-9.89,38.33-23.6-32.8-23.6-32.8-6.38-5.7-10.52-3.15,6.06,8,6.06,8,7.94,65.06,47.82,36.36S201.07,73.51,201.07,73.51Z" fill="#f4a28c"/><path d="M202,63.1a6.3,6.3,0,0,0,3-2s0,3.16-3.36,6.4Z" fill="#ce8172" opacity="0.31"/><path d="M201.07,73.1l9.46-1.19s23.49.45,24.85,26.32-6.12,24.51-8.85,47H189.36s1.43-14-3-23.49S158.59,105.15,201.07,73.1Z" fill="#5172f8"/><rect x="191.4" y="90.36" width="14.79" height="21.7" fill="#24285b"/><path d="M208.49,77.46s-4.48,10.48,3.67,23.75,12.58,20.43-1.63,20.17-14.48-25.1-14.48-25.1H185.34l1.28,20.51,6.64,1,10.83,21.53,23,1.84,8.44-10.61L240,112.06,221.85,80.33Z" opacity="0.08"/><path d="M228.88,80.52s15.35,7.84,15.69,40.52-25.91,23.15-42.91-1.7c0,0-10.22-9.87-5.61-14s9.89,9.88,9.89,9.88,16.61,12.74,23.37,10.11S193.11,77.09,228.88,80.52Z" fill="#f4a28c"/><path d="M204.63,53.34a31.15,31.15,0,0,1,1.31,12.51c-.75,6.73-2.09,17.49,11.57,18.51s12.26-5.94,11.11-11.26S215.15,67.38,216,56s-7.24-13.48-14.32-13.23S190.06,53.6,204.63,53.34Z" fill="#ffd200"/><polygon points="189.56 138.18 185.34 164.47 231.64 164.47 227.11 141.18 189.56 138.18" fill="#24285b"/><circle cx="137.63" cy="53.12" r="26.04" fill="#24285b"/><circle cx="294.23" cy="70.46" r="25.83" fill="#24285b"/><circle cx="305.17" cy="158.96" r="26.45" fill="#24285b"/><circle cx="106.02" cy="148.83" r="28.19" fill="#24285b"/><path d="M140.14,217.62s-8.23-2.25-10-9.91c0,0,12.75-2.58,13.12,10.59Z" fill="#5172f8" opacity="0.58"/><path d="M141.15,216.8s-5.75-9.09-.69-17.59c0,0,9.7,6.16,5.39,17.61Z" fill="#5172f8" opacity="0.73"/><path d="M142.63,216.81s3-9.6,12.23-11.42c0,0,1.72,6.23-6,11.45Z" fill="#5172f8"/><polygon points="136.66 216.59 138.33 228.01 148.84 228.05 150.39 216.65 136.66 216.59" fill="#24285b"/><rect x="281.34" y="59.89" width="27.57" height="20.45" fill="#fff"/><polygon points="281.34 59.88 295.13 74.75 308.92 59.88 281.34 59.88" fill="#5172f8"/><rect x="293.84" y="151.08" width="24.04" height="17.03" fill="#ffd200"/><polygon points="302.07 155.34 302.07 164.15 311.66 159.6 302.07 155.34" fill="#fff"/><circle cx="147.4" cy="51.84" r="3.43" fill="#ffd200"/><rect x="124.85" y="47.81" width="10.19" height="8.97" fill="#ffd200"/><path d="M135,47.81a14.78,14.78,0,0,0,12.42-9.16V64.12s-4.14-7.34-12.42-7.34Z" fill="#fff"/><polygon points="129.94 56.78 132.81 65.45 137.53 65.45 135.03 56.78 129.94 56.78" fill="#ffd200"/><rect x="90.65" y="137.01" width="30.4" height="24.17" fill="#5172f8"/><polygon points="90.65 161.18 100.3 144.64 105.85 155.37 111.7 146.95 121.05 161.18 90.65 161.18" fill="#fff" opacity="0.85"/><circle cx="106.57" cy="143.95" r="2.25" fill="#fff"/></svg>